<svg width="24" height="24" viewBox="0 0 24 24" fill="none" xmlns="http://www.w3.org/2000/svg">
<g clip-path="url(#clip0_49_319)">
<path d="M22.5003 7.16953L20.1824 3.52734C19.9753 3.20039 19.6074 3 19.2146 3H4.78599C4.39314 3 4.02528 3.20039 3.81814 3.52734L1.50028 7.16953C0.30385 9.05039 1.36456 11.666 3.60028 11.9648C3.76099 11.9859 3.92528 11.9965 4.08956 11.9965C5.14671 11.9965 6.08242 11.5395 6.72528 10.8328C7.36814 11.5395 8.30742 11.9965 9.36099 11.9965C10.4181 11.9965 11.3539 11.5395 11.9967 10.8328C12.6396 11.5395 13.5789 11.9965 14.6324 11.9965C15.6896 11.9965 16.6253 11.5395 17.2681 10.8328C17.9146 11.5395 18.8503 11.9965 19.9039 11.9965C20.0717 11.9965 20.2324 11.9859 20.3931 11.9648C22.636 11.6695 23.7003 9.05391 22.5003 7.16953ZM19.911 13.125C19.5539 13.125 19.2003 13.0723 18.8574 12.9914V16.5H5.14314V12.9914C4.80028 13.0688 4.44671 13.125 4.08956 13.125C3.87528 13.125 3.65742 13.1109 3.44671 13.0828C3.24671 13.0547 3.05028 13.009 2.86099 12.9563V19.875C2.86099 20.4973 3.37171 21 4.00385 21H20.0039C20.636 21 21.1467 20.4973 21.1467 19.875V12.9563C20.9538 13.0125 20.761 13.0582 20.561 13.0828C20.3431 13.1109 20.1289 13.125 19.911 13.125Z" />
</g>
<defs>
<clipPath id="clip0_49_319">
<rect width="22" height="18" fill="white" transform="translate(1 3)"/>
</clipPath>
</defs>
</svg>
